name rise44.8762peak52.3436fall86.788.mot
datacolumns 19
datarows 21
range 17.11826900000000 17.15159600000000
endheader
time	ground_force1_vx	ground_force1_vy	ground_force1_vz	ground_force1_px	ground_force1_py	ground_force1_pz	ground_force2_vx	ground_force2_vy	ground_force2_vz	ground_force2_px	ground_force2_py	ground_force2_pz	ground_torque1_x	ground_torque1_y	ground_torque1_z	ground_torque2_x	ground_torque2_y	ground_torque2_z	
17.11826900000000	70.06489700000000	788.69341299999996	52.36362900000000	0.29054800000000	0.00000000000000	0.10913900000000	0.00000000000000	0.00000000000000	0.00000000000000	0.00000000000000	0.00000000000000	0.00000000000000	0.00000000000000	14.94356900000000	0.00000000000000	0.00000000000000	0.00000000000000	0.00000000000000	
17.11993800000000	69.25706200000000	790.61779100000001	52.42704200000000	0.28969000000000	0.00000000000000	0.10911000000000	0.00000000000000	0.00000000000000	0.00000000000000	0.00000000000000	0.00000000000000	0.00000000000000	0.00000000000000	15.02167000000000	0.00000000000000	0.00000000000000	0.00000000000000	0.00000000000000	
17.12160200000000	68.44360700000000	792.36512000000005	52.49099800000000	0.28883500000000	0.00000000000000	0.10908200000000	0.00000000000000	0.00000000000000	0.00000000000000	0.00000000000000	0.00000000000000	0.00000000000000	0.00000000000000	15.10162500000000	0.00000000000000	0.00000000000000	0.00000000000000	0.00000000000000	
17.12327000000000	67.62531400000000	793.93546400000002	52.55514900000000	0.28798000000000	0.00000000000000	0.10905500000000	0.00000000000000	0.00000000000000	0.00000000000000	0.00000000000000	0.00000000000000	0.00000000000000	0.00000000000000	15.18313400000000	0.00000000000000	0.00000000000000	0.00000000000000	0.00000000000000	
17.12493700000000	66.80290700000000	795.32914200000005	52.61907900000000	0.28712500000000	0.00000000000000	0.10903000000000	0.00000000000000	0.00000000000000	0.00000000000000	0.00000000000000	0.00000000000000	0.00000000000000	0.00000000000000	15.26586100000000	0.00000000000000	0.00000000000000	0.00000000000000	0.00000000000000	
17.12659700000000	65.97705999999999	796.54672900000003	52.68230400000000	0.28626800000000	0.00000000000000	0.10900600000000	0.00000000000000	0.00000000000000	0.00000000000000	0.00000000000000	0.00000000000000	0.00000000000000	0.00000000000000	15.34944400000000	0.00000000000000	0.00000000000000	0.00000000000000	0.00000000000000	
17.12826800000000	65.14839800000000	797.58906200000001	52.74428700000000	0.28540900000000	0.00000000000000	0.10898200000000	0.00000000000000	0.00000000000000	0.00000000000000	0.00000000000000	0.00000000000000	0.00000000000000	0.00000000000000	15.43349600000000	0.00000000000000	0.00000000000000	0.00000000000000	0.00000000000000	
17.12993300000000	64.31749499999999	798.45724299999995	52.80443600000000	0.28454500000000	0.00000000000000	0.10896000000000	0.00000000000000	0.00000000000000	0.00000000000000	0.00000000000000	0.00000000000000	0.00000000000000	0.00000000000000	15.51761000000000	0.00000000000000	0.00000000000000	0.00000000000000	0.00000000000000	
17.13160400000000	63.48488200000000	799.15264200000001	52.86211800000000	0.28367600000000	0.00000000000000	0.10893900000000	0.00000000000000	0.00000000000000	0.00000000000000	0.00000000000000	0.00000000000000	0.00000000000000	0.00000000000000	15.60136000000000	0.00000000000000	0.00000000000000	0.00000000000000	0.00000000000000	
17.13326700000000	62.65105100000000	799.67690000000005	52.91666000000000	0.28280100000000	0.00000000000000	0.10891900000000	0.00000000000000	0.00000000000000	0.00000000000000	0.00000000000000	0.00000000000000	0.00000000000000	0.00000000000000	15.68430700000000	0.00000000000000	0.00000000000000	0.00000000000000	0.00000000000000	
17.13493000000000	61.81645100000000	800.03192500000000	52.96736100000000	0.28191900000000	0.00000000000000	0.10890000000000	0.00000000000000	0.00000000000000	0.00000000000000	0.00000000000000	0.00000000000000	0.00000000000000	0.00000000000000	15.76600300000000	0.00000000000000	0.00000000000000	0.00000000000000	0.00000000000000	
17.13659500000000	60.98149700000000	800.21989599999995	53.01349400000000	0.28102700000000	0.00000000000000	0.10888200000000	0.00000000000000	0.00000000000000	0.00000000000000	0.00000000000000	0.00000000000000	0.00000000000000	0.00000000000000	15.84599300000000	0.00000000000000	0.00000000000000	0.00000000000000	0.00000000000000	
17.13827000000000	60.14657300000000	800.24325899999997	53.05431700000000	0.28012700000000	0.00000000000000	0.10886400000000	0.00000000000000	0.00000000000000	0.00000000000000	0.00000000000000	0.00000000000000	0.00000000000000	0.00000000000000	15.92382000000000	0.00000000000000	0.00000000000000	0.00000000000000	0.00000000000000	
17.13993700000000	59.31203200000000	800.10472500000003	53.08908100000000	0.27921600000000	0.00000000000000	0.10884700000000	0.00000000000000	0.00000000000000	0.00000000000000	0.00000000000000	0.00000000000000	0.00000000000000	0.00000000000000	15.99902900000000	0.00000000000000	0.00000000000000	0.00000000000000	0.00000000000000	
17.14160100000000	58.47820100000000	799.80726700000002	53.11703300000000	0.27829300000000	0.00000000000000	0.10883100000000	0.00000000000000	0.00000000000000	0.00000000000000	0.00000000000000	0.00000000000000	0.00000000000000	0.00000000000000	16.07116900000000	0.00000000000000	0.00000000000000	0.00000000000000	0.00000000000000	
17.14326900000000	57.64538500000000	799.35411499999998	53.13742500000000	0.27735800000000	0.00000000000000	0.10881500000000	0.00000000000000	0.00000000000000	0.00000000000000	0.00000000000000	0.00000000000000	0.00000000000000	0.00000000000000	16.13979800000000	0.00000000000000	0.00000000000000	0.00000000000000	0.00000000000000	
17.14493200000000	56.81386900000000	798.74874899999998	53.14952000000000	0.27641000000000	0.00000000000000	0.10880000000000	0.00000000000000	0.00000000000000	0.00000000000000	0.00000000000000	0.00000000000000	0.00000000000000	0.00000000000000	16.20448600000000	0.00000000000000	0.00000000000000	0.00000000000000	0.00000000000000	
17.14659900000000	55.98392000000000	797.99489600000004	53.15260300000000	0.27544800000000	0.00000000000000	0.10878600000000	0.00000000000000	0.00000000000000	0.00000000000000	0.00000000000000	0.00000000000000	0.00000000000000	0.00000000000000	16.26481800000000	0.00000000000000	0.00000000000000	0.00000000000000	0.00000000000000	
17.14826400000000	55.15579500000000	797.09651899999994	53.14597700000000	0.27447100000000	0.00000000000000	0.10877100000000	0.00000000000000	0.00000000000000	0.00000000000000	0.00000000000000	0.00000000000000	0.00000000000000	0.00000000000000	16.32039700000000	0.00000000000000	0.00000000000000	0.00000000000000	0.00000000000000	
17.14993000000000	54.32973500000000	796.05781200000001	53.12898100000000	0.27348000000000	0.00000000000000	0.10875700000000	0.00000000000000	0.00000000000000	0.00000000000000	0.00000000000000	0.00000000000000	0.00000000000000	0.00000000000000	16.37084800000000	0.00000000000000	0.00000000000000	0.00000000000000	0.00000000000000	
17.15159600000000	53.50597600000000	794.88318900000002	53.10098600000000	0.27247300000000	0.00000000000000	0.10874300000000	0.00000000000000	0.00000000000000	0.00000000000000	0.00000000000000	0.00000000000000	0.00000000000000	0.00000000000000	16.41581800000000	0.00000000000000	0.00000000000000	0.00000000000000	0.00000000000000	
